<svg version="1.1" id="Layer_1" xmlns="http://www.w3.org/2000/svg" xmlns:xlink="http://www.w3.org/1999/xlink" x="0px" y="0px"
	 width="100%" viewBox="0 0 488 461" enable-background="new 0 0 488 461" xml:space="preserve">

<path fill="#FCFCFD" opacity="1.000000" stroke="none" 
	d="
M159.003876,230.175934 
	C163.365631,224.159943 167.701431,218.573151 171.838043,212.842545 
	C172.883789,211.393860 173.803329,209.517075 173.908234,207.784164 
	C174.380096,199.990189 173.788544,192.062149 174.965546,184.395111 
	C177.376022,168.693314 186.830139,158.072845 201.768356,153.234772 
	C216.877121,148.341431 230.645706,151.738007 242.352158,162.701859 
	C243.079132,163.382736 243.759079,164.113983 244.489761,164.790649 
	C244.727417,165.010742 245.057068,165.131500 245.563263,165.424026 
	C253.826279,156.293839 264.086426,151.099426 276.603149,151.188019 
	C298.899353,151.345825 316.357544,168.956787 316.535217,191.275452 
	C316.545837,192.607819 316.616486,193.945908 316.523865,195.271896 
	C315.892303,204.315491 317.212677,211.581329 324.522888,219.079254 
	C339.755768,234.703278 337.115173,260.619507 320.481079,274.760956 
	C317.260773,277.498688 316.284119,280.213348 316.488190,284.127686 
	C317.168152,297.169830 313.835724,308.833313 304.127808,318.141174 
	C289.381714,332.279663 263.397217,334.400787 245.414734,314.870392 
	C244.132416,316.044067 242.873550,317.256378 241.552261,318.396332 
	C228.817978,329.382904 214.389191,332.376648 198.842987,325.967560 
	C183.249817,319.539093 174.772217,307.149567 174.353012,290.365631 
	C174.151169,282.283508 172.055267,276.605713 166.302734,270.530670 
	C155.675430,259.307526 153.792358,245.290024 159.003876,230.175934 
M283.374969,243.305496 
	C287.584564,251.206757 284.539673,257.094635 275.719513,258.108765 
	C264.971191,259.344574 256.587830,265.690826 255.255127,274.857666 
	C254.356964,281.035675 254.352097,287.525269 255.133255,293.726135 
	C256.563751,305.081482 269.571533,313.229828 281.005768,310.609161 
	C293.024109,307.854584 300.860046,295.779175 297.655273,284.769531 
	C296.547424,284.769531 295.390533,284.875214 294.258636,284.751587 
	C288.735138,284.148193 285.302063,280.747711 285.222382,275.884338 
	C285.142578,271.012268 288.359467,267.696686 293.970856,266.859741 
	C295.452423,266.638733 296.941956,266.453979 298.410248,266.163544 
	C309.254028,264.018799 316.616455,254.581070 316.137726,243.470917 
	C315.678253,232.807205 307.504181,224.117722 296.677307,222.853836 
	C293.874542,222.526642 291.027527,222.529037 288.243530,222.101791 
	C283.617889,221.391922 280.884338,218.078659 280.876953,213.516342 
	C280.869598,208.947937 283.589600,205.556931 288.213287,204.923141 
	C291.448120,204.479767 294.751678,204.537643 298.008087,204.372467 
	C298.008087,198.414597 298.665771,192.544067 297.863861,186.880203 
	C296.429871,176.751923 286.244995,168.859879 276.141785,169.165207 
	C265.080109,169.499496 255.650284,177.689606 254.909973,188.506042 
	C254.206558,198.783463 254.303040,209.119629 254.179550,219.431534 
	C254.074753,228.184219 254.157898,236.939148 254.157898,246.009399 
	C258.516815,244.321640 262.233276,242.401657 266.182922,241.468964 
	C271.752563,240.153732 277.605927,238.199615 283.374969,243.305496 
M182.917175,227.314590 
	C175.580826,233.475525 172.729218,241.363022 175.306030,250.515228 
	C177.942978,259.880859 184.651245,265.149567 194.342163,266.491089 
	C195.496368,266.650879 196.656677,266.774567 197.804367,266.972015 
	C202.451324,267.771515 205.314301,270.915100 205.267319,275.503296 
	C205.221893,279.941040 203.366364,283.246429 198.662201,284.173004 
	C196.604095,284.578430 194.490005,284.699677 192.387589,284.951599 
	C191.003006,297.270111 197.506393,307.293823 208.931870,310.386932 
	C219.050201,313.126160 231.024567,308.002625 234.088928,297.678955 
	C236.220932,290.496338 236.274384,282.183655 235.172699,274.681824 
	C233.738022,264.912445 225.567322,259.099854 214.753662,258.082825 
	C210.767548,257.707916 207.636887,256.335205 206.036026,252.545700 
	C203.123047,245.650162 208.433365,239.001404 216.476486,240.215164 
	C223.085846,241.212570 229.510315,243.435074 236.036148,245.119583 
	C236.036148,227.294449 236.123596,208.988174 236.003708,190.683289 
	C235.930618,179.522644 227.652786,170.696167 216.276413,169.239883 
	C206.420303,167.978210 195.545258,175.054123 193.252853,185.227127 
	C191.861237,191.402710 192.093658,197.944275 191.556625,204.832870 
	C195.860733,204.832870 199.346924,204.161713 202.384140,205.041138 
	C204.900772,205.769852 207.829575,207.874451 208.928146,210.161057 
	C211.877106,216.299149 207.790787,222.045074 200.527283,222.379776 
	C194.482269,222.658310 188.556564,222.984161 182.917175,227.314590 
z"/>

</svg>