<svg version="1.1" id="Layer_1" xmlns="http://www.w3.org/2000/svg" xmlns:xlink="http://www.w3.org/1999/xlink" x="0px" y="0px"
	 width="100%" viewBox="0 0 375 369" enable-background="new 0 0 375 369" xml:space="preserve">

<path fill="#FCFBFD" opacity="1.000000" stroke="none" 
	d="
M211.587433,187.556091 
	C206.937531,182.545929 202.569565,177.769150 198.201614,172.992371 
	C197.629929,173.276764 197.058258,173.561172 196.486588,173.845566 
	C194.958450,183.251099 193.320541,192.641907 192.053192,202.082474 
	C191.908920,203.157196 193.643143,204.773773 194.846832,205.693451 
	C203.579483,212.365692 212.342957,219.001099 221.219894,225.479279 
	C224.776260,228.074646 226.321884,231.212997 226.237793,235.653854 
	C226.032730,246.481476 226.209488,257.315765 226.155746,268.147003 
	C226.123520,274.641022 223.194092,278.123077 217.765274,278.365051 
	C212.269821,278.610016 208.432053,274.953674 208.234451,268.543579 
	C207.972717,260.052979 208.025497,251.545181 208.228821,243.051620 
	C208.307846,239.749832 207.397583,237.598495 204.603363,235.608093 
	C196.059433,229.522049 187.916855,222.867264 179.308395,216.878998 
	C173.771240,213.027176 172.095001,208.503891 173.401489,201.922302 
	C175.730972,190.187454 177.421463,178.325775 179.546585,165.507187 
	C171.256119,167.103134 163.545792,168.587387 155.123520,170.208710 
	C155.123520,176.711121 155.316635,183.151871 155.069229,189.575668 
	C154.821518,196.007629 149.938980,199.513580 143.773453,198.018661 
	C139.135742,196.894180 137.323685,193.426117 137.232483,189.121063 
	C137.049026,180.459854 137.040726,171.789276 137.223450,163.128128 
	C137.326340,158.250305 139.925919,154.973892 144.848145,153.956482 
	C159.348938,150.959213 173.851547,147.968445 188.377686,145.097763 
	C192.190125,144.344330 195.613602,145.283524 198.212463,148.502914 
	C199.357895,149.921844 200.859985,151.049561 202.036102,152.447495 
	C213.727631,166.344086 227.344421,177.062759 245.778198,180.714752 
	C251.368439,181.822266 253.922928,186.914444 252.716675,191.637283 
	C251.384384,196.853622 246.867432,199.700623 241.010223,197.901764 
	C231.187851,194.885117 221.572067,191.195755 211.587433,187.556091 
z"/>
<path fill="#FCFCFD" opacity="1.000000" stroke="none" 
	d="
M172.422516,220.835663 
	C179.062546,223.398087 181.183105,227.918442 178.533691,233.865448 
	C176.577332,238.256821 174.325638,242.524597 172.046677,246.762009 
	C169.806488,250.927322 166.186615,252.453140 161.583023,251.541550 
	C147.261978,248.705765 132.938950,245.878738 118.635071,242.958282 
	C112.652412,241.736786 109.740654,237.290634 110.982666,231.652939 
	C112.037468,226.865021 116.620193,224.125656 122.260559,225.222565 
	C132.844391,227.280914 143.426727,229.368835 153.943573,231.737869 
	C157.625885,232.567337 159.813065,232.007263 161.192245,228.218536 
	C162.982452,223.300674 166.251953,220.050034 172.422516,220.835663 
z"/>
<path fill="#FCFCFD" opacity="1.000000" stroke="none" 
	d="
M216.562134,112.940926 
	C218.337509,123.539062 214.978699,130.974960 207.109528,134.583527 
	C199.988846,137.848892 191.245026,136.136536 186.199341,130.260361 
	C181.164597,124.396889 180.345978,117.664124 183.462494,110.746254 
	C186.557159,103.876915 192.389633,100.467552 199.801376,100.595802 
	C207.884308,100.735672 213.530899,104.876320 216.562134,112.940926 
z"/>
</svg>