<svg version="1.1" id="Layer_1" xmlns="http://www.w3.org/2000/svg" xmlns:xlink="http://www.w3.org/1999/xlink" x="0px" y="0px"
	 width="100%" viewBox="0 0 465 461" enable-background="new 0 0 465 461" xml:space="preserve">

<path fill="#FDFCFD" opacity="1.000000" stroke="none" 
	d="
M241.841843,257.813232 
	C231.981293,247.642761 222.260483,237.817093 212.401810,228.131729 
	C211.286118,227.035660 209.393906,226.730026 207.861786,226.057846 
	C207.520691,227.570984 206.885483,229.083496 206.882156,230.597366 
	C206.822189,257.911987 206.853729,285.226776 206.808945,312.541412 
	C206.805450,314.679779 206.633560,316.882019 206.103241,318.942139 
	C204.986542,323.280090 201.760803,325.113831 197.509186,325.011353 
	C193.210846,324.907776 190.215500,322.711212 189.223602,318.437378 
	C188.779312,316.523102 188.851883,314.466980 188.850311,312.475128 
	C188.829025,285.660065 188.836044,258.844971 188.836044,232.029907 
	C188.836044,230.212921 188.836044,228.395950 188.836044,226.504684 
	C173.704224,221.422379 164.457336,211.457626 162.378159,195.664673 
	C161.751953,190.908188 162.325790,186.003098 161.891525,181.207596 
	C161.702850,179.124252 160.811829,176.743713 159.447327,175.197464 
	C155.818237,171.085007 151.710693,167.398972 147.882355,163.456985 
	C143.513687,158.958603 143.218781,153.466263 147.021057,149.725479 
	C150.853668,145.954865 156.124374,146.317093 160.706543,150.892456 
	C193.580170,183.717117 226.421280,216.574371 259.271271,249.422699 
	C278.691559,268.841980 298.128937,288.244354 317.494019,307.718536 
	C319.211884,309.446075 321.086700,311.454010 321.769623,313.675720 
	C322.898102,317.346741 322.152161,321.045776 318.622772,323.411987 
	C315.280121,325.653046 311.746307,325.780457 308.334991,323.501526 
	C306.962646,322.584747 305.765717,321.405334 304.259766,320.155243 
	C298.943390,327.354034 291.295654,325.426514 284.204315,324.602875 
	C279.950714,324.108826 277.872040,320.629425 277.856110,316.252441 
	C277.832489,309.757050 278.015533,303.253754 277.728516,296.770752 
	C277.643280,294.845978 276.708221,292.584900 275.413574,291.157074 
	C271.391205,286.721008 266.911804,282.703094 262.796173,278.346802 
	C259.227112,274.569061 255.841858,271.488434 249.877411,271.400177 
	C243.860733,271.311096 242.124878,267.532593 241.841843,257.813232 
z"/>
<path fill="#FDFCFD" opacity="1.000000" stroke="none" 
	d="
M270.235779,204.321930 
	C267.973480,210.778641 265.812408,216.872803 263.764282,223.004700 
	C261.926758,228.506119 258.886108,231.121689 254.289734,230.937286 
	C247.947067,230.682800 244.371582,225.574844 246.215073,218.368439 
	C247.815414,212.112579 249.793106,205.873734 252.371536,199.962158 
	C260.818634,180.595551 273.813110,164.452744 288.968262,149.953674 
	C291.834045,147.211945 295.263641,146.302170 299.085571,147.949036 
	C303.151520,149.701035 304.525818,153.061783 304.528107,157.206604 
	C304.534729,169.199234 304.533020,181.191864 304.533234,193.184494 
	C304.533661,215.670685 304.566376,238.156952 304.515381,260.643036 
	C304.496979,268.763550 299.777771,273.546204 293.487122,271.237549 
	C290.861847,270.274109 288.669800,267.216827 287.101959,264.616486 
	C286.107483,262.967133 286.490417,260.405579 286.487427,258.252777 
	C286.454376,234.267563 286.471405,210.282272 286.456573,186.297012 
	C286.455475,184.564545 286.311218,182.832169 286.233582,181.099747 
	C285.700317,180.877777 285.167084,180.655823 284.633850,180.433868 
	C279.884613,188.281174 275.135376,196.128479 270.235779,204.321930 
z"/>
<path fill="#FDFCFD" opacity="1.000000" stroke="none" 
	d="
M215.467300,177.011261 
	C215.576889,172.204086 215.409241,167.861908 215.870819,163.587662 
	C216.369568,158.969238 219.845917,156.154266 224.321640,156.052582 
	C228.663635,155.953949 232.803360,158.850357 232.975021,163.341293 
	C233.361191,173.444458 233.350052,183.585312 232.924545,193.686554 
	C232.740082,198.065598 228.408829,201.100616 224.072876,200.654251 
	C219.779312,200.212250 216.258057,198.226227 215.888367,193.436371 
	C215.480118,188.146988 215.585480,182.817932 215.467300,177.011261 
z"/>
</svg>