<svg version="1.1" id="Layer_1" xmlns="http://www.w3.org/2000/svg" xmlns:xlink="http://www.w3.org/1999/xlink" x="0px" y="0px"
	 width="100%" viewBox="0 0 452 439" enable-background="new 0 0 452 439" xml:space="preserve">

<path fill="#FCFCFD" opacity="1.000000" stroke="none" 
	d="
M288.803070,285.808197 
	C236.786667,333.250977 155.888626,307.682770 140.584259,239.291489 
	C129.371399,189.184006 165.696671,138.388000 216.744904,132.875107 
	C221.196091,132.394409 225.696228,132.341568 230.176514,132.162659 
	C234.416016,131.993378 237.710831,133.705673 239.354095,137.682114 
	C241.071777,141.838623 239.818588,145.436646 236.654373,148.528503 
	C227.573532,157.401672 221.908737,168.043839 219.783661,180.628235 
	C213.586533,217.326492 243.713882,250.319733 280.954498,247.259216 
	C286.355530,246.815353 291.719482,245.274597 296.962860,243.763504 
	C301.117889,242.566071 304.917511,242.286652 308.049042,245.602402 
	C311.345337,249.092651 310.916840,253.072891 309.066162,257.200378 
	C304.238464,267.967407 297.613525,277.439026 288.803070,285.808197 
M271.076294,265.366791 
	C220.067734,262.556976 181.960800,205.058182 209.810013,153.224060 
	C187.582275,153.828033 162.051865,181.843124 157.537094,212.103287 
	C153.058716,242.119568 169.509628,275.150818 204.067917,287.966003 
	C230.832291,297.891022 268.193237,287.663788 282.067261,265.494598 
	C278.436615,265.494598 275.203979,265.494598 271.076294,265.366791 
z"/>
</svg>