<svg version="1.1" id="Layer_1" xmlns="http://www.w3.org/2000/svg" xmlns:xlink="http://www.w3.org/1999/xlink" x="0px" y="0px"
	 width="100%" viewBox="0 0 431 428" enable-background="new 0 0 431 428" xml:space="preserve">

<path fill="#FCFCFD" opacity="1.000000" stroke="none" 
	d="
M264.006866,243.586945 
	C269.687042,244.898590 271.979065,248.728928 272.965027,253.603790 
	C276.588348,271.518311 280.208557,289.433655 283.748047,307.364838 
	C285.072327,314.073608 281.565125,319.784393 275.469940,321.228729 
	C268.929779,322.778564 263.214813,319.340027 261.703674,312.343719 
	C258.648865,298.200684 255.804382,284.009094 253.136902,269.788025 
	C252.553574,266.678192 251.442642,265.729401 248.313873,265.769745 
	C235.157501,265.939392 221.997665,265.853455 208.839111,265.837555 
	C197.835587,265.824280 193.462921,261.117523 194.907516,250.372955 
	C197.323364,232.404160 199.963882,214.465607 202.500137,196.512939 
	C202.705627,195.058304 202.836258,193.593079 203.088364,191.367264 
	C193.150177,193.829803 183.728333,196.160278 174.308609,198.499405 
	C159.952652,202.064346 145.612747,205.695526 131.237015,209.178772 
	C123.788109,210.983643 118.147934,207.818314 116.481178,201.183426 
	C114.887207,194.838257 118.750175,189.030304 125.973877,187.201599 
	C154.970169,179.861176 183.963058,172.505096 213.013138,165.382904 
	C215.738190,164.714813 219.106949,164.967209 221.752716,165.942627 
	C250.585037,176.572250 279.345123,187.398727 308.080994,198.287384 
	C310.496613,199.202759 312.966583,200.587006 314.761353,202.397659 
	C318.221069,205.887924 318.420013,211.718002 315.778473,215.818466 
	C312.977325,220.166718 307.846466,222.199005 302.692078,220.352310 
	C290.184052,215.870972 277.772919,211.118973 265.326691,206.465393 
	C252.426086,201.641922 239.530136,196.805923 226.081970,191.769348 
	C223.621979,208.949249 221.210922,225.787384 218.675186,243.496216 
	C234.049423,243.496216 248.824585,243.496216 264.006866,243.586945 
z"/>
<path fill="#FBFBFC" opacity="1.000000" stroke="none" 
	d="
M198.777771,282.493347 
	C193.539383,292.962616 188.302155,302.993378 183.470047,313.215698 
	C180.713257,319.047607 176.395111,321.822083 170.125427,321.833496 
	C156.460297,321.858398 142.793777,321.954285 129.130432,321.795166 
	C121.159714,321.702362 116.158440,317.054504 116.159134,310.299194 
	C116.159851,303.260376 121.204163,299.019592 129.678238,299.000153 
	C140.177032,298.976074 150.677460,298.896088 161.173798,299.058777 
	C164.037018,299.103149 165.664856,298.328827 166.928116,295.619293 
	C170.439209,288.088409 174.249573,280.695862 178.002289,273.279297 
	C181.495544,266.375488 187.468491,263.792145 193.553391,266.460205 
	C199.303482,268.981476 201.375687,275.001831 198.777771,282.493347 
z"/>
<path fill="#FCFCFD" opacity="1.000000" stroke="none" 
	d="
M236.481567,142.300262 
	C229.563644,152.858627 218.764496,156.536377 208.201904,152.179230 
	C198.335983,148.109467 192.892120,137.755264 194.918716,126.914711 
	C196.850998,116.578796 206.238327,109.012299 217.144165,109.000290 
	C233.722092,108.982033 243.814056,126.012878 236.481567,142.300262 
z"/>
</svg>